<svg width="40" height="40" viewBox="0 0 40 40" fill="none" xmlns="http://www.w3.org/2000/svg">
    <path fill-rule="evenodd" clip-rule="evenodd"
        d="M16.8787 9.87868C18.0503 8.70711 19.9498 8.70711 21.1213 9.87868L29.7929 18.5503C30.9645 19.7218 30.9645 21.6213 29.7929 22.7929L23.6213 28.9645C22.4498 30.136 20.5503 30.136 19.3787 28.9645L10.7071 20.2929C9.53554 19.1213 9.53554 17.2218 10.7071 16.0503L16.8787 9.87868ZM19.7071 11.2929C19.3166 10.9024 18.6834 10.9024 18.2929 11.2929L12.1213 17.4645C11.7308 17.855 11.7308 18.4882 12.1213 18.8787L20.7929 27.5503C21.1834 27.9408 21.8166 27.9408 22.2071 27.5503L28.3787 21.3787C28.7692 20.9882 28.7692 20.355 28.3787 19.9645L19.7071 11.2929Z"
        fill="currentColor" />
    <circle cx="19" cy="17.1716" r="2" fill="currentColor" />
    <path d="M19.5 17.1716L26.5 10.1716" stroke="currentColor" stroke-width="2"
        stroke-linecap="round" stroke-linejoin="round" />
    <path
        d="M9 28.1716C9 26.9716 10.5 24.6716 11 24.1716C11.8333 24.6716 13 26.9716 13 28.1716C13 29.6716 12 30.6716 11 30.6716C10 30.6716 9 29.6716 9 28.1716Z"
        stroke="currentColor" stroke-width="2" stroke-linecap="round" stroke-linejoin="round" />
</svg>