<svg width="40" height="40" viewBox="0 0 40 40" fill="none" xmlns="http://www.w3.org/2000/svg">
    <path fill-rule="evenodd" clip-rule="evenodd"
        d="M9.29112 22.9112C8.69551 22.3156 8.3609 21.5077 8.3609 20.6654C8.3609 19.8231 8.69551 19.0153 9.29112 18.4197C9.88673 17.824 10.6946 17.4894 11.5369 17.4894L11.8425 17.4894L11.8425 15.0079C11.8425 14.281 12.1312 13.5839 12.6452 13.0699C13.1592 12.5559 13.8563 12.2671 14.5832 12.2671L17.0648 12.2671L17.0648 11.9615C17.0648 11.1192 17.3994 10.3114 17.995 9.71577C18.5906 9.12016 19.3984 8.78555 20.2408 8.78555C21.0831 8.78555 21.8909 9.12016 22.4865 9.71577C23.0821 10.3114 23.4167 11.1192 23.4167 11.9615L23.4167 12.2671L25.8983 12.2671C26.6252 12.2671 27.3223 12.5559 27.8363 13.0699C28.3503 13.5839 28.6391 14.281 28.6391 15.0079L28.6391 18.3154C28.6391 18.8676 28.1914 19.3154 27.6391 19.3154L26.3335 19.3154C25.5802 19.3154 24.9834 19.9121 24.9834 20.6654C24.9834 21.4187 25.5802 22.0155 26.3335 22.0155L27.6391 22.0155C28.1914 22.0155 28.6391 22.4632 28.6391 23.0155L28.6391 26.3229C28.6391 27.0498 28.3503 27.747 27.8363 28.261C27.3223 28.775 26.6252 29.0637 25.8983 29.0637L22.5908 29.0637C22.0385 29.0637 21.5908 28.616 21.5908 28.0637L21.5908 26.7581C21.5908 26.0048 20.9941 25.4081 20.2408 25.4081C19.4875 25.4081 18.8907 26.0048 18.8907 26.7581L18.8907 28.0637C18.8907 28.616 18.443 29.0637 17.8907 29.0637L14.5832 29.0637C13.8563 29.0637 13.1592 28.775 12.6452 28.261C12.1312 27.747 11.8425 27.0498 11.8425 26.3229L11.8425 23.8414L11.5369 23.8414C10.6946 23.8414 9.88673 23.5068 9.29112 22.9112ZM10.3609 20.6654C10.3609 20.9773 10.4848 21.2764 10.7053 21.497C10.9259 21.7175 11.225 21.8414 11.5369 21.8414L12.8425 21.8414C13.3947 21.8414 13.8425 22.2891 13.8425 22.8414L13.8425 26.3229C13.8425 26.5194 13.9205 26.7078 14.0594 26.8468C14.1984 26.9857 14.3868 27.0637 14.5832 27.0637L16.8907 27.0637L16.8907 26.7581C16.8907 24.9003 18.3829 23.4081 20.2408 23.4081C22.0986 23.4081 23.5908 24.9003 23.5908 26.7581L23.5908 27.0637L25.8983 27.0637C26.0948 27.0637 26.2832 26.9857 26.4221 26.8468C26.561 26.7078 26.6391 26.5194 26.6391 26.3229L26.6391 24.0155L26.3335 24.0155C24.4756 24.0155 22.9834 22.5233 22.9834 20.6654C22.9834 18.8075 24.4756 17.3154 26.3335 17.3154L26.6391 17.3154L26.6391 15.0079C26.6391 14.8114 26.561 14.623 26.4221 14.4841C26.2832 14.3451 26.0948 14.2671 25.8983 14.2671L22.4167 14.2671C21.8645 14.2671 21.4167 13.8194 21.4167 13.2671L21.4167 11.9615C21.4167 11.6496 21.2928 11.3505 21.0723 11.13C20.8518 10.9094 20.5527 10.7855 20.2408 10.7855C19.9289 10.7855 19.6298 10.9094 19.4092 11.13C19.1887 11.3505 19.0648 11.6496 19.0648 11.9615L19.0648 13.2671C19.0648 13.8194 18.6171 14.2671 18.0648 14.2671L14.5832 14.2671C14.3868 14.2671 14.1983 14.3451 14.0594 14.4841C13.9205 14.623 13.8425 14.8114 13.8425 15.0079L13.8425 18.4894C13.8425 19.0417 13.3947 19.4894 12.8425 19.4894L11.5369 19.4894C11.225 19.4894 10.9259 19.6133 10.7053 19.8339C10.4848 20.0544 10.3609 20.3535 10.3609 20.6654Z"
        fill="currentColor" />
</svg>