<svg width="40" height="40" viewBox="0 0 40 40" fill="none" xmlns="http://www.w3.org/2000/svg">
    <path
        d="M22.6841 12.1583L26.8947 16.3688M29.1831 14.0657C29.7396 13.5093 30.0523 12.7546 30.0524 11.9676C30.0525 11.1807 29.74 10.4259 29.1836 9.86935C28.6272 9.31281 27.8725 9.0001 27.0856 9C26.2986 8.9999 25.5438 9.31243 24.9873 9.86882L10.9389 23.9204C10.6945 24.1641 10.5137 24.4641 10.4126 24.7941L9.02204 29.3751C8.99483 29.4662 8.99278 29.5629 9.01609 29.655C9.0394 29.7471 9.08722 29.8312 9.15445 29.8983C9.22169 29.9654 9.30585 30.0131 9.39799 30.0363C9.49014 30.0594 9.58684 30.0572 9.67783 30.0299L14.2599 28.6404C14.5896 28.5401 14.8896 28.3605 15.1336 28.1172L29.1831 14.0657Z"
        stroke="currentColor" stroke-width="2" stroke-linecap="round" stroke-linejoin="round" />
</svg>