<svg width="40" height="40" viewBox="0 0 40 40" fill="none" xmlns="http://www.w3.org/2000/svg">
    <path fill-rule="evenodd" clip-rule="evenodd"
        d="M20.9718 10.8787C22.1434 9.70711 24.0429 9.70711 25.2144 10.8787L29.4305 15.0948C30.6021 16.2664 30.6021 18.1659 29.4305 19.3374L23.884 24.884L19.8374 28.9306L28.8954 28.9306C29.4477 28.9306 29.8954 29.3783 29.8954 29.9306C29.8954 30.4829 29.4477 30.9306 28.8954 30.9306L17.4232 30.9306L15.8375 30.9306C15.0418 30.9306 14.2788 30.6145 13.7161 30.0519L9.87868 26.2144C8.70711 25.0429 8.70711 23.1434 9.87868 21.9718L15.4252 16.4252L20.9718 10.8787ZM17.009 28.9306L21.7627 24.1769L16.1323 18.5466L11.2929 23.386C10.9024 23.7765 10.9024 24.4097 11.2929 24.8002L15.1304 28.6377C15.3179 28.8252 15.5723 28.9306 15.8375 28.9306L17.009 28.9306ZM17.5466 17.1323L23.1769 22.7627L28.0163 17.9232C28.4069 17.5327 28.4069 16.8995 28.0163 16.509L23.8002 12.2929C23.4097 11.9024 22.7765 11.9024 22.386 12.2929L17.5466 17.1323Z"
        fill="currentColor" />
</svg>